<svg width="9" height="9" viewBox="0 0 9 9" fill="none" xmlns="http://www.w3.org/2000/svg">
<g clip-path="url(#clip0_1_1628)">
<path d="M2.69726 1.34496V1.69081H1.98909C1.84635 1.69081 1.71048 1.71826 1.58147 1.77316C1.45246 1.82805 1.3413 1.90491 1.24797 2.00372C1.15465 2.09705 1.07916 2.20822 1.02152 2.33722C0.96388 2.46623 0.935059 2.6021 0.935059 2.74484V7.66912C0.935059 7.81185 0.962507 7.94772 1.0174 8.07673C1.0723 8.20574 1.14916 8.31691 1.24797 8.41023C1.3413 8.50356 1.45246 8.57904 1.58147 8.63668C1.71048 8.69432 1.84635 8.72314 1.98909 8.72314H6.91337C7.0561 8.72314 7.19197 8.6957 7.32098 8.6408C7.44999 8.5859 7.56115 8.50905 7.65448 8.41023C7.74781 8.31691 7.82329 8.20574 7.88093 8.07673C7.93857 7.94772 7.96739 7.81185 7.96739 7.66912V2.74484C7.96739 2.6021 7.93995 2.46623 7.88505 2.33722C7.83015 2.20822 7.75329 2.09705 7.65448 2.00372C7.56115 1.9104 7.44999 1.83491 7.32098 1.77727C7.19197 1.71963 7.0561 1.69081 6.91337 1.69081H6.20519V1.34496C6.20519 1.24614 6.17088 1.16242 6.10226 1.0938C6.03364 1.02518 5.95267 0.99087 5.85934 0.99087C5.76053 0.99087 5.67681 1.02518 5.60819 1.0938C5.53956 1.16242 5.50525 1.24614 5.50525 1.34496V1.69081H3.3972V1.34496C3.3972 1.24614 3.36289 1.16242 3.29427 1.0938C3.22565 1.02518 3.14193 0.99087 3.04311 0.99087C2.94979 0.99087 2.86881 1.02518 2.80019 1.0938C2.73157 1.16242 2.69726 1.24614 2.69726 1.34496ZM7.25922 3.79886H1.64323V2.74484C1.64323 2.70092 1.65147 2.657 1.66794 2.61308C1.68441 2.56916 1.70911 2.53074 1.74205 2.4978C1.77499 2.46486 1.81204 2.44016 1.85321 2.42369C1.89439 2.40722 1.93968 2.39898 1.98909 2.39898H2.69726V2.74484C2.69726 2.84365 2.73157 2.92737 2.80019 2.99599C2.86881 3.06461 2.94979 3.09892 3.04311 3.09892C3.14193 3.09892 3.22565 3.06461 3.29427 2.99599C3.36289 2.92737 3.3972 2.84365 3.3972 2.74484V2.39898H5.50525V2.74484C5.50525 2.84365 5.53956 2.92737 5.60819 2.99599C5.67681 3.06461 5.76053 3.09892 5.85934 3.09892C5.95267 3.09892 6.03364 3.06461 6.10226 2.99599C6.17088 2.92737 6.20519 2.84365 6.20519 2.74484V2.39898H6.91337C6.95728 2.39898 7.0012 2.40722 7.04512 2.42369C7.08904 2.44016 7.12747 2.46486 7.1604 2.4978C7.19334 2.53074 7.21805 2.56916 7.23452 2.61308C7.25099 2.657 7.25922 2.70092 7.25922 2.74484V3.79886ZM1.64323 4.50704H7.25922V7.66912C7.25922 7.71304 7.25099 7.75695 7.23452 7.80087C7.21805 7.84479 7.19334 7.88322 7.1604 7.91616C7.12747 7.94909 7.09041 7.9738 7.04924 7.99027C7.00806 8.00674 6.96277 8.01497 6.91337 8.01497H1.98909C1.94517 8.01497 1.90125 8.00674 1.85733 7.99027C1.81341 7.9738 1.77499 7.94909 1.74205 7.91616C1.70911 7.88322 1.68441 7.84479 1.66794 7.80087C1.65147 7.75695 1.64323 7.71304 1.64323 7.66912V4.50704Z" fill="#707070"/>
</g>
<defs>
<clipPath id="clip0_1_1628">
<rect width="8.43221" height="8.43221" fill="white" transform="matrix(1 0 0 -1 0.246948 8.896)"/>
</clipPath>
</defs>
</svg>
