<svg width="23" height="24" viewBox="0 0 23 24" fill="none" xmlns="http://www.w3.org/2000/svg">
<path fill-rule="evenodd" clip-rule="evenodd" d="M11.2411 14.1748L11.3491 14.1748L11.5908 14.1756C13.4385 14.1878 17.6608 14.3744 17.6608 17.2363C17.6608 20.0794 13.5857 20.2648 11.6196 20.2769L10.8912 20.2769C9.0435 20.2647 4.82034 20.0783 4.82034 17.22C4.82034 14.3734 9.0435 14.1877 10.8912 14.1756L11.133 14.1748C11.1705 14.1748 11.2065 14.1748 11.2411 14.1748ZM11.2411 15.6103C8.96715 15.6103 6.25588 15.8898 6.25588 17.22C6.25588 18.5202 8.80532 18.8242 11.0332 18.8414L11.2411 18.8422C13.515 18.8422 16.2253 18.5637 16.2253 17.2363C16.2253 15.8926 13.515 15.6103 11.2411 15.6103ZM18.8529 13.7864C21.1718 14.1338 21.6589 15.2229 21.6589 16.0756C21.6589 16.5962 21.4541 17.5466 20.0855 18.0681C20.0013 18.0997 19.9152 18.115 19.83 18.115C19.541 18.115 19.2682 17.939 19.1591 17.6528C19.0175 17.2824 19.2041 16.8671 19.5745 16.7264C20.2234 16.4795 20.2234 16.2067 20.2234 16.0756C20.2234 15.6564 19.6903 15.3636 18.6395 15.2066C18.248 15.1473 17.9772 14.7827 18.0356 14.3893C18.094 13.9969 18.4576 13.7357 18.8529 13.7864ZM4.44557 14.3893C4.50394 14.7827 4.23311 15.1473 3.84168 15.2066C2.79086 15.3636 2.2578 15.6564 2.2578 16.0756C2.2578 16.2067 2.2578 16.4785 2.90762 16.7264C3.27799 16.8671 3.46461 17.2824 3.32297 17.6528C3.21387 17.939 2.94111 18.115 2.65209 18.115C2.56692 18.115 2.48078 18.0997 2.39656 18.0681C1.02705 17.5456 0.82225 16.5953 0.82225 16.0756C0.82225 15.2239 1.30938 14.1338 3.62922 13.7864C4.02447 13.7366 4.38623 13.9969 4.44557 14.3893ZM11.2411 4.20825C13.6528 4.20825 15.6137 6.17016 15.6137 8.58092C15.6137 10.9917 13.6528 12.9536 11.2411 12.9536H11.2152C10.0476 12.9498 8.95375 12.4923 8.13453 11.6654C7.3134 10.8395 6.86455 9.74276 6.8693 8.57805C6.8693 6.17016 8.83029 4.20825 11.2411 4.20825ZM11.2411 5.6438C9.62176 5.6438 8.30486 6.96163 8.30486 8.58092C8.30201 9.36569 8.60252 10.0997 9.15281 10.6538C9.7031 11.208 10.4362 11.5152 11.2171 11.518L11.2411 12.2358V11.518C12.8603 11.518 14.1782 10.2012 14.1782 8.58092C14.1782 6.96163 12.8603 5.6438 11.2411 5.6438ZM17.1641 5.14566C18.8466 5.42224 20.0687 6.86162 20.0687 8.568C20.0649 10.2859 18.7815 11.7597 17.0828 11.998C17.0493 12.0028 17.0158 12.0047 16.9832 12.0047C16.631 12.0047 16.3238 11.7453 16.2731 11.3865C16.2186 10.9931 16.4913 10.6304 16.8847 10.5759C17.88 10.4361 18.6312 9.57288 18.6332 8.56609C18.6332 7.56791 17.9173 6.7238 16.9306 6.56207C16.5401 6.49795 16.275 6.12853 16.3392 5.73711C16.4042 5.34568 16.7708 5.08346 17.1641 5.14566ZM6.14295 5.73711C6.20707 6.12853 5.94198 6.49795 5.55151 6.56207C4.56481 6.7238 3.84895 7.56791 3.84895 8.568C3.85087 9.57288 4.60214 10.4371 5.59649 10.5759C5.98983 10.6304 6.26258 10.9931 6.20803 11.3865C6.15731 11.7453 5.8501 12.0047 5.49792 12.0047C5.46538 12.0047 5.43188 12.0028 5.39838 11.998C3.69966 11.7597 2.41724 10.2859 2.41341 8.56992C2.41341 6.86162 3.63554 5.42224 5.31799 5.14566C5.7209 5.0825 6.07788 5.3476 6.14295 5.73711Z" fill="#7D7D7D"/>
</svg>
