<svg width="18" height="25" viewBox="0 0 18 25" fill="none" xmlns="http://www.w3.org/2000/svg">
<path d="M13.4524 20.0761C14.3025 20.0781 15.1194 19.7444 15.7228 19.1469C16.3265 18.5492 16.6667 17.7364 16.6667 16.8879V10.4692C16.6667 9.72882 16.336 9.02791 15.7661 8.55472L15.7603 8.54991L15.7544 8.54523L10.8413 4.64982C10.8409 4.64954 10.8406 4.64927 10.8402 4.64899C9.73817 3.7691 8.16242 3.79497 7.09031 4.70946L2.30053 8.54348C1.70712 9.00269 1.35116 9.70355 1.33352 10.4536L1.33333 10.4614V10.4692V16.8813C1.33333 18.6503 2.77658 20.0761 4.54665 20.0761H5.95853C6.64427 20.0761 7.23305 19.6384 7.44834 19.0227L11.1046 18.5056L10.438 18.5007C10.438 18.5016 10.438 18.5026 10.438 18.5035C10.4356 18.9208 10.6009 19.321 10.8956 19.6157C11.1908 19.911 11.5915 20.0761 12.0085 20.0761H13.4524ZM13.4524 20.0761C13.4522 20.0761 13.4519 20.0761 13.4516 20.0761L13.4533 19.4095V20.0761H13.4524Z" stroke="#7D7D7D" stroke-width="1.33333"/>
</svg>
